<?xml version="1.0" encoding="utf-8"?>
<!-- Generator: Adobe Illustrator 22.1.0, SVG Export Plug-In . SVG Version: 6.00 Build 0)  -->
<svg version="1.1" id="Layer_1" xmlns="http://www.w3.org/2000/svg" xmlns:xlink="http://www.w3.org/1999/xlink" x="0px" y="0px"
	 viewBox="0 0 246 246" enable-background="new 0 0 246 246" xml:space="preserve">
<ellipse transform="matrix(7.580009e-02 -0.9971 0.9971 7.580009e-02 -8.9698 236.2926)" cx="123" cy="123" rx="123" ry="123"/>
<g>
	<path fill="#FFFFFF" d="M66.6,119.6h-3.6H48.6h-9.2v10.7h8.3v2.2c-1.2,0.7-2.8,1.1-5.5,1.1c-6.8,0-11.6-4.7-11.6-11.6v-0.1
		c0-5.5,3.2-9.8,8-11.1v0h22.1l-9.6-14.5H38.6v0.1c-14.1,1.1-24.3,11.5-24.3,25.2v0.1c0,15.1,12.1,25.2,27.3,25.2
		c8.8,0,16.2-3,21.4-7.3v-9.4h10.7L66.6,119.6z"/>
	<path fill="#FFFFFF" d="M209.1,119.9L225,96h-18.3l-7.1,11.7l-6.9-11.4V96h-0.2h-18.6h-22.2v23.7h-4.4H145l4.5,10.7h2.3v14.5
		l-20.4-48.7h-16.1L99,134.9l-4.4-6.4c5.9-2.8,9.6-7.8,9.6-14.8v-0.1c0-5-1.5-8.6-4.4-11.5c-3.4-3.4-8.9-5.5-17.5-5.5H69.5v0h-6.5
		h-7.8L87.5,145h17h1.4h6.2l0.3-0.7l6.3-17.3h0l0.7-1.8l1.9-5.1l0,0l1.9-5l2.8,7.5l0,0l1.5,4.3l2.6,7.3h-10.4l-3.9,10.7l18.4,0h17.6
		l16.3,0v-14.6h5.9l4.8,0l7.2-10.7h-12h-5.9v-3.5v-6.2h15l6.7,10.1l0,0.1l0,0l-4.3,6.4L173.2,145h18.3l7.8-12.8l7.8,12.8h18.6
		L209.1,119.9z M88.1,114.8c0,3-2.4,4.7-6.2,4.7h-7V110h7.1c3.7,0,6.2,1.5,6.2,4.6V114.8z"/>
</g>
<g>
	<path fill="#FFFFFF" d="M228.7,141.8v3.2h-0.9v-3.2h-1.2V141h3.3v0.8H228.7z"/>
	<path fill="#FFFFFF" d="M233.7,145v-2.6l-1.1,1.7h0l-1.1-1.7v2.6h-0.9v-4h0.9l1,1.7l1-1.7h0.9v4H233.7z"/>
</g>
<g>
</g>
<g>
</g>
<g>
</g>
<g>
</g>
<g>
</g>
<g>
</g>
<g>
</g>
<g>
</g>
<g>
</g>
<g>
</g>
<g>
</g>
<g>
</g>
<g>
</g>
<g>
</g>
<g>
</g>
</svg>
