<?xml version="1.0" encoding="utf-8"?>
<!-- Generator: Adobe Illustrator 20.1.0, SVG Export Plug-In . SVG Version: 6.00 Build 0)  -->
<svg version="1.1" id="Isolation_Mode" xmlns="http://www.w3.org/2000/svg" xmlns:xlink="http://www.w3.org/1999/xlink" x="0px"
	 y="0px" viewBox="0 0 162.2 162.2" style="enable-background:new 0 0 162.2 162.2;" xml:space="preserve">
<style type="text/css">
	.st0{fill:#FFFFFF;}
</style>
<path d="M0,81.1c0,44.8,36.3,81.1,81.1,81.1c44.8,0,81.1-36.3,81.1-81.1C162.2,36.3,125.9,0,81.1,0C36.3,0,0,36.3,0,81.1"/>
<path class="st0" d="M44.4,79.8h-2.5h-9.9h-6.3v7.3h5.7v1.5c-0.9,0.5-1.9,0.8-3.8,0.8c-4.7,0-8-3.2-8-8v-0.1c0-3.8,2.2-6.7,5.5-7.6
	v0h15.2l-6.6-9.9h-8.6v0.1c-9.7,0.7-16.7,7.9-16.7,17.3v0.1c0,10.3,8.3,17.3,18.7,17.3c6,0,11.1-2,14.7-5v-6.5h7.4L44.4,79.8z"/>
<path class="st0" d="M59.2,76.5c0,2-1.6,3.2-4.3,3.2h-4.8v-6.5h4.9C57.5,73.2,59.2,74.3,59.2,76.5L59.2,76.5z M142.3,80l10.9-16.4
	h-12.6l-4.9,8l-4.7-7.9v-0.2h-0.1h-12.8h-15.2v16.3h-3h-1.6l3.1,7.3h1.6v9.9l-14-33.4h-11L66.7,90.3l-3-4.4c4-2,6.6-5.3,6.6-10.2
	v-0.1c0-3.4-1-5.9-3-7.9c-2.3-2.3-6.1-3.8-12-3.8h-8.8v0h-4.5h-5.3l22.2,33.4h11.7h1h4.2l0.2-0.5l4.4-11.9h0l0.5-1.2l1.3-3.5l0,0
	l1.3-3.4l1.9,5.2l0,0l1.1,2.9l1.8,5h-7.2l-2.7,7.4l12.7,0H103l11.2,0V87.1h4.1l3.3,0l4.9-7.3h-8.2h-4.1v-2.4v-4.3h10.3l4.6,6.9l0,0
	l0,0l-3,4.4l-8.4,12.6h12.6l5.4-8.8l5.3,8.8h12.8L142.3,80z"/>
</svg>
