<?xml version="1.0" encoding="utf-8"?>
<!-- Generator: Adobe Illustrator 22.1.0, SVG Export Plug-In . SVG Version: 6.00 Build 0)  -->
<svg version="1.1" id="Layer_1" xmlns="http://www.w3.org/2000/svg" xmlns:xlink="http://www.w3.org/1999/xlink" x="0px" y="0px"
	 viewBox="0 0 234.6 53.2" enable-background="new 0 0 234.6 53.2" xml:space="preserve">
<path fill="#FFFFFF" d="M54.5,24.6H26.2v11.1h8.7v2.3c-1.8,0.9-3.8,1.3-5.8,1.2C22,39.2,17,34.3,17,27.2V27c0-5.8,3.4-10.2,8.3-11.5
	h23.1l-10-15h-13v0.1C10.7,1.7,0,12.5,0,26.8v0.1c0,15.7,12.6,26.2,28.4,26.2c8.1,0.1,16-2.5,22.3-7.6v-9.8h11.2L54.5,24.6z"/>
<path fill="#FFFFFF" d="M202.9,25l16.6-25h-19L193,12.2l-7.2-11.9V0h-42.6v24.6h-7l4.6,11.1h2.4v15.1L122,0.1h-16.8L88.3,40.5
	l-4.6-6.7c6.1-3,10-8.1,10-15.5v-0.1c0-5.2-1.6-9-4.6-12c-3.6-3.5-9.3-5.8-18.2-5.8H57.5l0,0H42.6L76.3,51H102l0.3-0.7l6.6-18l0,0
	l0.7-1.8l1.9-5.3l0,0l2-5.2l3,7.8l0,0l1.6,4.4l2.7,7.5h-11L105.7,51h19.2h18.3h16.9V35.8h11.2l7.4-11.1h-18.7V14.6h15.6l7,10.5v0.1
	l0,0l-4.5,6.7l-12.8,19.2h19l8.2-13.3l8.1,13.3h19.4L202.9,25z M76.9,19.6c0,3.1-2.5,4.9-6.5,4.9h-7.3v-9.9h7.4
	c3.9,0,6.4,1.6,6.4,4.8V19.6z"/>
<g>
	<path fill="#FFFFFF" d="M228.7,45.8V49h-0.9v-3.2h-1.2V45h3.3v0.8H228.7z"/>
	<path fill="#FFFFFF" d="M233.7,49v-2.6l-1.1,1.7h0l-1.1-1.7V49h-0.9v-4h0.9l1,1.7l1-1.7h0.9v4H233.7z"/>
</g>
<g>
</g>
<g>
</g>
<g>
</g>
<g>
</g>
<g>
</g>
<g>
</g>
<g>
</g>
<g>
</g>
<g>
</g>
<g>
</g>
<g>
</g>
<g>
</g>
<g>
</g>
<g>
</g>
<g>
</g>
</svg>
