<svg id="Layer_1" data-name="Layer 1" xmlns="http://www.w3.org/2000/svg" viewBox="0 0 220.23 53.17"><defs><style>.cls-1{fill:#fff;}</style></defs><title>Artboard 1</title><path class="cls-1" d="M54.5,24.65H26.22V35.76h8.67v2.31a11.19,11.19,0,0,1-5.78,1.15C22,39.23,17,34.32,17,27.17V27c0-5.75,3.35-10.24,8.31-11.53H48.4L38.37.44h-13v.1C10.68,1.66,0,12.52,0,26.81v.14C0,42.63,12.64,53.17,28.39,53.17a35,35,0,0,0,22.32-7.58V35.76H61.9Z"/><path class="cls-1" d="M202.94,24.95,219.5,0h-19L193,12.18,185.82.27V0H143.18V24.65h-7l4.64,11.11h2.4V50.83L122,.13H105.2L88.3,40.52l-4.56-6.66c6.14-3,10-8.09,10-15.46v-.14c0-5.2-1.59-9-4.62-12C85.55,2.73,79.84.49,70.88.49H57.52v0H42.62L76.33,51.05H102l.28-.73,6.6-18.05h0l.69-1.82,1.93-5.29,0,0,2-5.19,3,7.84h0l1.6,4.44,2.72,7.55H109.83L105.74,51l19.19,0h18.35l16.93,0V35.76h11.22l7.45-11.13H160.21V14.55h15.65l7,10.54,0,.07h0l-4.5,6.71L165.52,51.06h19l8.17-13.28,8.1,13.28h19.4ZM76.88,19.63c0,3.11-2.46,4.91-6.5,4.91h-7.3v-9.9h7.37c3.9,0,6.43,1.59,6.43,4.84Z"/></svg>