<?xml version="1.0" encoding="utf-8"?>
<!-- Generator: Adobe Illustrator 20.1.0, SVG Export Plug-In . SVG Version: 6.00 Build 0)  -->
<svg version="1.1" id="Isolation_Mode" xmlns="http://www.w3.org/2000/svg" xmlns:xlink="http://www.w3.org/1999/xlink" x="0px"
	 y="0px" viewBox="0 0 220.2 52.7" style="enable-background:new 0 0 220.2 52.7;" xml:space="preserve">
<style type="text/css">
	.st0{fill:#231F20;}
</style>
<g>
	<path class="st0" d="M54.5,24.2h-3.8H35.8h-9.5v11.1h8.7v2.3c-1.3,0.7-2.9,1.2-5.8,1.2C22,38.8,17,33.9,17,26.7v-0.1
		c0-5.8,3.4-10.2,8.3-11.5v0h23.1L38.4,0h-13v0.1C10.7,1.2,0,12.1,0,26.4v0.1c0,15.7,12.6,26.2,28.4,26.2c9.2,0,16.8-3.1,22.3-7.6
		v-9.8h11.2L54.5,24.2z"/>
	<path class="st0" d="M202.9,24.5l16.6-24.9h-19L193,11.7l-7.2-11.9v-0.3h-0.2h-19.4h-23.1v24.7h-4.6h-2.5l4.6,11.1h2.4v15.1
		L122-0.3h-16.8L88.3,40.1l-4.6-6.7c6.1-3,10-8.1,10-15.5v-0.1c0-5.2-1.6-9-4.6-12C85.5,2.3,79.8,0,70.9,0H57.5v0h-6.8h-8.1
		l33.7,50.6H94h1.5h6.4l0.3-0.7l6.6-18.1h0l0.7-1.8l1.9-5.3l0,0l2-5.2l3,7.8l0,0l1.6,4.4l2.7,7.6h-10.9l-4.1,11.2l19.2,0h18.3
		l16.9,0V35.3h6.2l5,0l7.5-11.1h-12.5h-6.2v-3.6v-6.5h15.6l7,10.5l0,0.1l0,0l-4.5,6.7l-12.8,19.2h19l8.2-13.3l8.1,13.3h19.4
		L202.9,24.5z M76.9,19.2c0,3.1-2.5,4.9-6.5,4.9h-7.3v-9.9h7.4c3.9,0,6.4,1.6,6.4,4.8V19.2z"/>
</g>
</svg>
