<svg xmlns="http://www.w3.org/2000/svg" viewBox="0 0 270.03 269.99"><title>Asset 2</title><g id="Layer_2" data-name="Layer 2"><g id="Layer_1-2" data-name="Layer 1"><path d="M196.06,170.67c4.18,4.15,8.28,8.18,12.35,12.24q28,28,56,56c8.8,8.82,7,22.78-3.68,28.75-7.11,4-15.68,2.69-21.77-3.39Q215.8,241.19,192.66,218l-22-22c-28.37,19.17-59.12,25-92.11,15.79-25.43-7.06-45.59-22-60.28-43.89A108,108,0,0,1,175.52,23.67C217.53,57.17,231,121,196.06,170.67ZM108,180c39.64,0,72-32.2,72.07-71.69C180.09,68.42,148,36,108.36,36A72,72,0,1,0,108,180Z"/></g></g></svg>